<svg height="512" width="512" xmlns="http://www.w3.org/2000/svg"><path d="M396.167 265.386c-43.861 0-79.355 35.492-79.355 79.354s35.494 79.355 79.355 79.355c43.768 0 79.356-35.493 79.356-79.355s-35.588-79.354-79.356-79.354z" fill-rule="evenodd" clip-rule="evenodd" fill="#f36360"/><path d="M396.167 272.072c-20.085 0-38.313 8.191-51.443 21.32-13.114 13.114-21.212 31.262-21.212 51.348 0 20.074 8.098 38.22 21.212 51.431 13.13 13.128 31.358 21.226 51.443 21.226 19.992 0 38.234-8.098 51.349-21.226 13.115-13.211 21.226-31.356 21.226-51.431 0-20.086-8.11-38.233-21.226-51.348-13.115-13.128-31.357-21.32-51.349-21.32zm-60.856 11.799c15.584-15.488 37.082-25.186 60.856-25.186 23.695 0 45.273 9.697 60.775 25.186 15.597 15.597 25.28 37.081 25.28 60.869 0 23.776-9.684 45.272-25.28 60.855-15.502 15.584-37.08 25.188-60.775 25.188-23.774 0-45.272-9.604-60.856-25.188-15.596-15.583-25.198-37.079-25.198-60.855-.001-23.788 9.602-45.272 25.198-60.869z" fill="#4a374f"/><path d="M405.946 315.323v29.417c0 5.547-4.313 9.779-9.779 9.779-5.547 0-9.859-4.232-9.859-9.779v-29.417c0-5.466 4.313-9.779 9.859-9.779 5.466 0 9.779 4.313 9.779 9.779z" fill-rule="evenodd" clip-rule="evenodd" fill="#fff"/><path d="M412.646 315.323v29.417c0 4.571-1.857 8.721-4.855 11.705-2.902 2.997-7.053 4.855-11.624 4.855-4.665 0-8.721-1.858-11.704-4.855a16.423 16.423 0 01-4.855-11.705v-29.417c0-4.489 1.845-8.64 4.855-11.638 2.983-2.983 7.039-4.841 11.704-4.841 4.571 0 8.722 1.857 11.624 4.841 2.998 2.999 4.855 7.149 4.855 11.638zm-13.4 29.417v-29.417c0-.882-.353-1.682-.868-2.211a3.176 3.176 0 00-2.211-.882c-.963 0-1.667.354-2.292.882a3.204 3.204 0 00-.881 2.211v29.417c0 .963.365 1.764.881 2.197.625.623 1.329.882 2.292.882.882 0 1.669-.259 2.211-.882.516-.433.868-1.234.868-2.197z" fill="#4a374f"/><path d="M405.946 382.173c0 5.453-4.313 9.766-9.779 9.766-5.547 0-9.859-4.313-9.859-9.766 0-5.547 4.313-9.872 9.859-9.872 5.466 0 9.779 4.325 9.779 9.872z" fill-rule="evenodd" clip-rule="evenodd" fill="#fff"/><path d="M412.646 382.173c0 4.489-1.857 8.627-4.855 11.624-2.902 2.997-7.053 4.842-11.624 4.842-4.665 0-8.721-1.845-11.704-4.842-3.011-2.997-4.855-7.135-4.855-11.624 0-4.584 1.845-8.72 4.855-11.717a16.463 16.463 0 0111.704-4.842c4.571 0 8.641 1.844 11.624 4.842a16.505 16.505 0 014.855 11.717zm-14.268 2.197c.516-.527.868-1.314.868-2.197 0-.881-.353-1.681-.868-2.292a3.175 3.175 0 00-2.211-.881c-.963 0-1.764.353-2.292.881-.516.611-.881 1.411-.881 2.292 0 .883.365 1.67.881 2.197.625.529 1.329.882 2.292.882.882 0 1.669-.353 2.211-.882z" fill="#4a374f"/><path d="M438.361 254.101V123.234a35.25 35.25 0 00-10.308-24.929L296.292 229.973l-25.634 25.714c-9.25 9.169-21.226 13.835-33.202 13.835-12.064 0-24.047-4.666-33.202-13.835l-25.722-25.714-54.957 54.604-76.717 76.372c6.341 6.334 15.326 10.294 24.929 10.294h227.935c-2.278-8.449-3.607-17.347-3.607-26.502 0-27.572 11.271-52.583 29.323-70.729 18.064-18.051 43.075-29.241 70.729-29.241a99.68 99.68 0 0142.194 9.33z" fill-rule="evenodd" clip-rule="evenodd" fill="#fbcd64"/><path d="M123.577 284.576l54.957-54.604L46.859 98.305c-6.429 6.335-10.389 15.232-10.389 24.929v212.69c0 9.778 3.96 18.595 10.389 25.023l76.718-76.371z" fill-rule="evenodd" clip-rule="evenodd" fill="#fbcd64"/><path d="M51.62 102.971c-2.732 2.727-4.849 5.806-6.26 9.332a28.146 28.146 0 00-2.197 10.931v212.69c0 3.879.787 7.581 2.197 10.931a22.155 22.155 0 002.028 4.043l126.479-125.672 9.42 9.507L46.859 370.374l-4.754-4.76c-3.878-3.784-6.957-8.464-9.073-13.563a41.463 41.463 0 01-3.255-16.126v-212.69c0-5.643 1.139-11.108 3.255-16.031a41.092 41.092 0 019.073-13.658l9.515 9.425z" fill="#4a374f"/><path d="M178.533 229.973l25.722 25.714c9.155 9.169 21.138 13.835 33.202 13.835 11.976 0 23.952-4.666 33.202-13.835l25.634-25.714L428.054 98.305c-6.429-6.347-15.326-10.401-25.009-10.401H71.788c-9.603 0-18.588 4.055-24.929 10.401l131.674 131.668z" fill-rule="evenodd" clip-rule="evenodd" fill="#fbcd64"/><path d="M301.839 377.942H71.788c-5.547 0-11.013-1.14-16.031-3.174-5.106-2.115-9.78-5.289-13.652-9.154l9.42-9.427c2.645 2.645 5.819 4.761 9.338 6.253 3.438 1.315 7.134 2.115 10.925 2.115H298.15a84.523 84.523 0 003.689 13.387zm-.786-152.634l37.433 37.786-.19.081h-.081l-.082.095-.189.177-.162.081-.19.177-.163.095-.189.081-.081.177-.177.095-.177.177-.176.081-.177.095-.176.176-.177.081-.176.178-.177.095-.176.176-.176.082v.095l-.083.081-.189.095-.162.082-.177.176-.8.624-.162.177-.191.081-.162.176-.189.095-.163.163-.19.096-.081.176-.176.082-.095.095-.082.081-.176.095-.177.177-.177.095-.095.176-.705.529-.081.163-.176.095-.177.176-.177.081-.176.177-.177.096-.095.176-.163.177-.189.081-.163.176-.095.096-.176.176-.178.082-.176.176-.081.095v.082l-.189.095-.163.177-.19.081-.081.176-.176.177-36.553-36.81 9.523-9.434zm130.689 25.985l-.081-128.059c0-3.879-.786-7.581-2.116-10.931-1.491-3.526-3.607-6.605-6.252-9.332l9.426-9.426c3.879 3.879 7.053 8.449 9.168 13.658a42.58 42.58 0 013.16 16.031v134.313l-.176-.096-.176-.081-.258-.176-.178-.097-.176-.081-.189-.095-.081-.081-.176-.095-.178-.081-.162-.095-.271-.082-.176-.177h-.096l-.081-.095-.271-.081-.162-.095-.19-.081-.258-.177-.176-.096-.176-.081-.177-.095-.271-.081-.163-.176-.271-.096-.177-.081-.177-.096-.271-.081-.163-.082-.19-.095-.081-.095-.176-.081-.176-.095-.177-.081-.258-.095-.189-.082-.163-.095-.271-.082-.177-.095-.257-.176-.189-.082-.164-.095-.882-.353-.176-.081h-.081l-.189-.082-.164-.095-.189-.081-.257-.095-.177-.082-.082-.095h-.189l-.163-.082-.271-.095-.177-.081-.177-.095-.176-.081h-.095l-.162-.095-.271-.074-.176-.096-.258-.082-.19-.095-.257-.081-.177-.095-.176-.082-.259-.095-.189-.081z" fill="#4a374f"/><path d="M432.719 102.971L275.337 260.354c-5.126 5.208-11.02 9.073-17.448 11.719-6.517 2.82-13.474 4.136-20.432 4.136-6.958 0-13.916-1.315-20.521-4.136-6.347-2.646-12.336-6.511-17.442-11.719L37.434 98.305l4.672-4.76c3.872-3.879 8.545-6.957 13.652-9.073a41.343 41.343 0 0116.031-3.255h331.257c5.628 0 11.094 1.14 16.03 3.255 5.1 2.116 9.765 5.194 13.644 9.073l4.748 4.76-4.749 4.666zm-166.815 147.97L418.018 98.835c-1.329-.801-2.658-1.506-4.056-2.035a28.076 28.076 0 00-10.917-2.197H71.788c-3.791 0-7.487.787-10.925 2.197a23.47 23.47 0 00-3.96 2.035L209.008 250.94c3.872 3.878 8.368 6.863 13.034 8.803 4.929 2.021 10.131 3.078 15.414 3.078a40.145 40.145 0 0015.326-3.078c4.753-1.939 9.25-4.924 13.122-8.802z" fill="#4a374f"/></svg>