<svg height="64" width="64" xmlns="http://www.w3.org/2000/svg"><circle cx="32" cy="32" fill="#C75C5C" r="32"/><path d="M16.954 50c-4.4 0-6.2-3.118-4-6.928L28 17.012c2.2-3.811 5.8-3.811 8 0l15.046 26.06c2.2 3.811.4 6.928-4 6.928H16.954z" fill="#231F20" opacity=".2"/><path d="M16.954 48c-4.4 0-6.2-3.118-4-6.928L28 15.012c2.2-3.811 5.8-3.811 8 0l15.046 26.06c2.2 3.811.4 6.928-4 6.928H16.954z" fill="#F5CF87"/><path d="M34 32a2 2 0 11-4 0v-8a2 2 0 114 0v8zm0 8a2 2 0 11-4 0 2 2 0 114 0z" fill="#4F5D73"/></svg>