<svg id="Layer_1" version="1.1" viewBox="0 0 128 128" xml:space="preserve" xmlns="http://www.w3.org/2000/svg"><style>.st0{fill-rule:evenodd;clip-rule:evenodd}</style><path class="st0" d="M64 4c33.1 0 60 26.9 60 60s-26.9 60-60 60S4 97.1 4 64 30.9 4 64 4zm0-4C28.7 0 0 28.7 0 64s28.7 64 64 64 64-28.7 64-64S99.3 0 64 0z" id="XMLID_11_"/><path class="st0" d="M55.5 66.5L86.1 36c4.7-4.7 12.3-4.7 17 0 4.7 4.7 4.7 12.3 0 17C90 66 77 79 64 92c-4.5 4.5-11.6 4.7-16.3.6-.2-.2-.5-.3-.7-.6L25 69.8c-4.7-4.7-4.7-12.3 0-17 4.7-4.7 12.3-4.7 17 0l13.5 13.7zm0 5.7L39.1 55.7c-3.1-3.1-8.2-3.1-11.3 0-3.1 3.1-3.1 8.2 0 11.3l22 22.2v-.1c3.1 3.1 8.2 3.1 11.3 0 29.9-29.7 9.3-9.1 39.1-39 3.1-3.1 3.1-8.2 0-11.3-3.1-3.1-8.2-3.1-11.3 0L55.5 72.2z" id="XMLID_8_"/><path d="M55.5 72.2l33.4-33.4c3.1-3.1 8.2-3.1 11.3 0 3.1 3.1 3.1 8.2 0 11.3C70.4 80 91 59.4 61.1 89.2c-3.1 3.1-8.2 3.1-11.3 0v.1l-22-22.2c-3.1-3.1-3.1-8.2 0-11.3 3.1-3.1 8.2-3.1 11.3 0l16.4 16.4z" id="XMLID_1_" fill-rule="evenodd" clip-rule="evenodd" fill="#7aced7"/></svg>