<svg viewBox="0 0 32 32" xmlns="http://www.w3.org/2000/svg" fill="none" stroke="#fff" stroke-width=".7"><path d="M23.45 20.93a3 3 0 00-4.25 0l-1.45 1.45a26.14 26.14 0 01-4.51-3.62 26.14 26.14 0 01-3.62-4.51l1.45-1.45a3 3 0 000-4.25L8.24 5.73a2.93 2.93 0 00-2.11-.88h0A3 3 0 004 5.73L2.64 7.08A6.37 6.37 0 001 12.33c.32 3.75 2.78 8.26 6.57 12.06s8.35 6.25 12.1 6.61a7.87 7.87 0 00.84 0 6.07 6.07 0 004.41-1.64L26.27 28a3 3 0 00.88-2.13 2.93 2.93 0 00-.88-2.11zM26.6 5.39A14.92 14.92 0 0016 1a1 1 0 100 2 13 13 0 0113 13.11 1 1 0 001 1h0a1 1 0 001-1 14.91 14.91 0 00-4.4-10.72z"/><path d="M20.91 11.11a6 6 0 011.77 4.31 1 1 0 001 1h0a1 1 0 001-1 8 8 0 00-8-8.1 1 1 0 100 2 6 6 0 014.23 1.79z"/></svg>